<svg xmlns="http://www.w3.org/2000/svg" width="1167.6" height="602.2" viewBox="0 0 1167.6 602.2"><g style="fill: #3730A3"><path d="M149.3,901.1,624.9,663.3V621.6L66,901.1Z" transform="translate(-16.2 -298.9)"/><path d="M221.5,901.1H531.7V746Z" transform="translate(-16.2 -298.9)"/><path d="M718,901.1h340.8L718,730.7Z" transform="translate(-16.2 -298.9)"/><path d="M1183.8,901.1V714.8H811.2Z" transform="translate(-16.2 -298.9)"/><path d="M1183.8,339.5l-377.9,189h377.9Z" transform="translate(-16.2 -298.9)"/><path d="M513.1,677.5H569V901.1H680.8V677.5h503V565.8H736.6Z" transform="translate(-16.2 -298.9)"/><path d="M16.2,298.9V602.6H426.8V298.9Zm339.7,40.6,4.8,14.6H376l-12.4,9,4.7,14.6-12.4-9-12.4,9,4.8-14.6-12.4-9h15.3ZM368.3,437l-12.4-9-12.4,9,4.8-14.6-12.4-9h15.3l4.7-14.6,4.8,14.6H376l-12.4,9Zm0,58.9-12.4-9-12.4,9,4.8-14.6-12.4-9h15.3l4.7-14.6,4.8,14.6H376l-12.4,9ZM335,524.5l-12.3-9-12.4,9,4.7-14.6-12.4-9h15.3l4.8-14.6,4.7,14.6h15.3l-12.4,9Zm-34.6-28.6-12.4-9-12.4,9,4.7-14.6-12.4-9h15.3l4.8-14.6,4.7,14.6H308l-12.3,9Zm-34,28.6-12.4-9-12.4,9,4.7-14.6-12.4-9h15.4l4.7-14.6,4.7,14.6H274l-12.4,9Zm-35.1-28.6-12.4-9-12.4,9,4.8-14.6-12.4-9h15.3l4.7-14.6,4.8,14.6H239l-12.4,9Zm-33.6,28.6-12.4-9-12.4,9,4.7-14.6-12.4-9h15.4l4.7-14.6,4.7,14.6h15.4l-12.4,9Zm-34-28.6-12.4-9-12.4,9,4.8-14.6-12.4-9h15.3l4.7-14.6,4.8,14.6h15.3l-12.4,9ZM129,524.5l-12.4-9-12.4,9,4.8-14.6-12.4-9h15.3l4.7-14.6,4.8,14.6h15.3l-12.4,9ZM95,495.9l-12.4-9-12.4,9L75,481.3l-12.4-9H77.9l4.7-14.6,4.8,14.6h15.3l-12.4,9ZM62.5,413.4H77.9l4.7-14.6,4.8,14.6h15.3l-12.4,9L95,437l-12.4-9-12.4,9L75,422.4ZM335,407l-12.3-9-12.4,9,4.7-14.6-12.4-9h15.3l4.8-14.6,4.7,14.6h15.3l-12.4,9Zm0,58.3-12.3-9-12.4,9,4.7-14.6-12.4-9h15.3l4.8-14.5,4.7,14.5h15.3l-12.4,9Zm-27-51.9-12.4,9,4.8,14.6L288,428l-12.4,9,4.7-14.6-12.4-9h15.3l4.8-14.6,4.7,14.6Zm-41.6,51.9-12.4-9-12.4,9,4.7-14.6-12.4-9h15.4l4.7-14.5,4.7,14.5H274l-12.3,9Zm-4.8-72.9,4.8,14.6L254,398l-12.4,9,4.7-14.6-12.4-9h15.4l4.7-14.5,4.7,14.5h15.4Zm-22.6,21-12.4,9,4.7,14.6-12.4-9-12.4,9,4.8-14.6-12.4-9h15.3l4.7-14.6,4.8,14.6Zm-41.3,51.9-12.4-9-12.4,9,4.7-14.6-12.4-9h15.4l4.7-14.5,4.7,14.5h15.4l-12.4,9ZM193,392.4l4.7,14.6-12.4-9-12.4,9,4.8-14.6-12.4-9h15.3l4.7-14.5,4.8,14.5h15.3Zm-21.6,21-12.4,9,4.7,14.6-12.4-9-12.4,9,4.8-14.6-12.4-9h15.3l4.7-14.6,4.8,14.6ZM129,465.3l-12.4-9-12.4,9,4.8-14.6-12.4-9h15.3l4.7-14.5,4.8,14.5h15.3l-12.4,9Zm-4.7-71.1,4.7,14.6-12.4-9-12.4,9,4.8-14.6-12.4-9h15.3l4.7-14.6,4.8,14.6h15.3Zm193.6-70.1,4.8-14.6,4.7,14.6h15.3l-12.4,9,4.8,14.6-12.4-9-12.4,9,4.7-14.6-12.4-9ZM288,339.5l4.7,14.6H308l-12.4,9,4.8,14.6-12.4-9-12.4,9,4.7-14.6-12.4-9h15.4Zm-38.8-15.4,4.8-14.6,4.7,14.6H274l-12.4,9,4.8,14.6-12.4-9-12.4,9,4.7-14.6-12.4-9Zm-30.3,15.4,4.7,14.6H239l-12.4,9,4.7,14.6-12.4-9-12.4,9,4.8-14.6-12.4-9h15.3Zm-38.3-15.4,4.7-14.6,4.7,14.6h15.3l-12.4,9,4.8,14.6-12.4-9-12.4,9,4.8-14.6-12.4-9Zm-29.3,15.4,4.7,14.6h15.4l-12.4,9,4.7,14.6-12.4-9-12.4,9,4.8-14.6-12.4-9h15.3Zm-39.4-15.4,4.7-14.6,4.8,14.6h15.3l-12.4,9,4.7,14.6-12.4-9-12.4,9,4.8-14.6-12.4-9ZM82.6,339.5l4.8,14.6h15.3l-12.4,9L95,377.7l-12.4-9-12.4,9L75,363.1l-12.4-9H77.9ZM44.3,324.1,49,309.5l4.7,14.6H69.1l-12.4,9,4.7,14.6-12.4-9-12.4,9,4.8-14.6-12.4-9Zm0,59.3L49,368.9l4.7,14.5H69.1l-12.4,9L61.4,407,49,398l-12.4,9,4.8-14.6-12.4-9Zm0,58.3L49,427.2l4.7,14.5H69.1l-12.4,9,4.7,14.6-12.4-9-12.4,9,4.7-14.6-12.3-9Zm0,59.2L49,486.3l4.7,14.6H69.1l-12.4,9,4.7,14.6-12.4-9-12.4,9,4.8-14.6-12.4-9Zm17.1,82.8-12.4-9-12.4,9,4.7-14.6L29,560.2H44.3L49,545.6l4.7,14.6H69.1l-12.4,8.9Zm21.2-39-12.4,9L75,539.1l-12.4-9H77.9l4.7-14.6,4.8,14.6h15.3l-12.4,9L95,553.7Zm46.4,39-12.4-9-12.4,9,4.8-14.6-12.5-8.9h15.4l4.7-14.6,4.7,14.6h15.4l-12.4,8.9Zm22.3-39-12.4,9,4.8-14.6-12.4-9h15.3l4.7-14.6,4.8,14.6h15.3l-12.4,9,4.7,14.6Zm46.4,39-12.4-9-12.4,9,4.7-14.6-12.4-8.9h15.4l4.7-14.6,4.7,14.6h15.4L193,569.1Zm21.2-40.1-12.4,9,4.8-14.6-12.4-9h15.3l4.7-14.6,4.8,14.6H239l-12.4,9,4.7,14.6Zm47.5,41.2-12.4-9-12.4,9,4.7-14.6-12.4-9h15.4l4.7-14.6,4.7,14.6H274l-12.3,9ZM288,544.7l-12.4,9,4.7-14.6-12.4-9h15.3l4.8-14.6,4.7,14.6H308l-12.3,9,4.7,14.6Zm47,39-12.3-9-12.4,9,4.7-14.6-12.4-8.9h15.3l4.8-14.6,4.7,14.6h15.3l-12.4,8.9Zm20.9-39-12.4,9,4.8-14.6-12.4-9h15.3l4.8-14.6,4.7,14.6H376l-12.4,9,4.8,14.6Zm46.4,39-12.4-9-12.4,9,4.7-14.6-12.4-8.9h15.4l4.7-14.6,4.7,14.6H410l-12.4,8.9Zm-4.8-73.8,4.8,14.6-12.4-9-12.4,9,4.7-14.6-12.4-9h15.4l4.7-14.6,4.7,14.6H410Zm0-59.2,4.8,14.6-12.4-9-12.4,9,4.7-14.6-12.4-9h15.4l4.7-14.5,4.7,14.5H410Zm0-58.3,4.8,14.6-12.4-9-12.4,9,4.7-14.6-12.4-9h15.4l4.7-14.5,4.7,14.5H410Zm0-59.3,4.8,14.6-12.4-9-12.4,9,4.7-14.6-12.4-9h15.4l4.7-14.6,4.7,14.6H410Z" transform="translate(-16.2 -298.9)"/><path d="M96.1,817.8H16.2v39.9Z" transform="translate(-16.2 -298.9)"/><path d="M16.2,731.7v43.4H181.5l86.8-43.4Z" transform="translate(-16.2 -298.9)"/><path d="M16.2,645.6V689H353.7l86.7-43.4Z" transform="translate(-16.2 -298.9)"/><path d="M427,559.2v43.3h99.6l86.7-43.3Z" transform="translate(-16.2 -298.9)"/><path d="M427,471.1v43.4H702.7l86.8-43.4Z" transform="translate(-16.2 -298.9)"/><path d="M427,385v43.4H874.9L961.7,385Z" transform="translate(-16.2 -298.9)"/><path d="M1047.1,342.3l86.8-43.4h-707v43.4Z" transform="translate(-16.2 -298.9)"/></g></svg>