<svg xmlns="http://www.w3.org/2000/svg" width="532" height="532" viewBox="0 0 532 532"><path style="fill: #FFF" d="M440.3,546c-73.8,0-155.5-41.8-235-121.3C107.7,327,66.9,226.2,90.6,140.6a84.7,84.7,0,0,1,19.9-35.2c21-22.2,45.2-38.6,70-47.4a43.4,43.4,0,0,1,44.4,9.5,286.1,286.1,0,0,1,53.5,68.7c4.3,7.6,8.4,15.7,12.1,23.9a43.2,43.2,0,0,1-5.6,44.6c-11.5,14.7-25.1,30.2-41.6,47.5a13.4,13.4,0,0,0-2.3,15c11.9,24.5,29.6,48.8,51.3,70.5s46,39.4,70.5,51.3a13.4,13.4,0,0,0,15-2.3c17.3-16.5,32.8-30.1,47.5-41.6a43.2,43.2,0,0,1,44.6-5.6c8.2,3.7,16.3,7.8,23.9,12.1a289.2,289.2,0,0,1,68.7,53.5,43.4,43.4,0,0,1,9.5,44.4c-8.8,24.8-25.2,49-47.4,70a84.7,84.7,0,0,1-35.2,19.9,183.4,183.4,0,0,1-49.1,6.6ZM195,86.2a12.9,12.9,0,0,0-4.3.7c-20.2,7.2-40.2,20.8-57.9,39.5a54.6,54.6,0,0,0-12.7,22.4C99.5,223.2,137.5,313.5,227,403S406.8,530.5,481.2,509.9a54.2,54.2,0,0,0,22.3-12.7c18.8-17.7,32.4-37.7,39.5-57.9a12.6,12.6,0,0,0-2.7-13.1,260.5,260.5,0,0,0-61.4-47.9h-.1c-6.9-3.9-14.1-7.5-21.5-10.9a13,13,0,0,0-13.1,1.7c-13.9,11-28.7,24-45.2,39.7a44.2,44.2,0,0,1-49.7,7.8c-27.4-13.4-54.7-33.2-78.7-57.2s-43.8-51.3-57.2-78.7a44.4,44.4,0,0,1,7.7-49.7c15.8-16.5,28.8-31.3,39.7-45.2a12.5,12.5,0,0,0,1.7-13.1c-3.3-7.4-6.9-14.6-10.8-21.5a261.5,261.5,0,0,0-47.9-61.5,12.7,12.7,0,0,0-8.8-3.5Z" transform="translate(-84 -14)"/><path style="fill: #FFF" d="M502.4,300l-2.8-.2a15.3,15.3,0,0,1-12.2-17.9A119,119,0,0,0,348.1,142.6a15.3,15.3,0,1,1-5.7-30.1A149.6,149.6,0,0,1,517.5,287.6,15.4,15.4,0,0,1,502.4,300Z" transform="translate(-84 -14)"/><path style="fill: #FFF" d="M600,314.6h-1.2a15.2,15.2,0,0,1-14.1-16.4A235.5,235.5,0,0,0,331.9,45.3a15.3,15.3,0,0,1-2.3-30.5A265.9,265.9,0,0,1,615.2,300.4,15.3,15.3,0,0,1,600,314.6Z" transform="translate(-84 -14)"/></svg>