<?xml version="1.0" standalone="no"?>
<!DOCTYPE svg PUBLIC "-//W3C//DTD SVG 20010904//EN"
 "http://www.w3.org/TR/2001/REC-SVG-20010904/DTD/svg10.dtd">
<svg version="1.0" xmlns="http://www.w3.org/2000/svg"
 width="512.000000pt" height="512.000000pt" viewBox="0 0 512.000000 512.000000"
 preserveAspectRatio="xMidYMid meet">
<metadata>
Created by potrace 1.14, written by Peter Selinger 2001-2017
</metadata>
<g transform="translate(0.000000,512.000000) scale(0.100000,-0.100000)"
fill="#000000" stroke="none">
<path d="M1205 5095 c-90 -19 -210 -69 -259 -107 -117 -89 -178 -265 -192
-557 -26 -512 194 -1489 456 -2026 l68 -140 -13 -95 c-24 -173 -36 -371 -42
-705 -8 -485 10 -698 83 -958 87 -312 196 -483 321 -503 33 -5 44 -2 72 21 74
63 127 215 261 745 127 500 208 724 320 890 137 201 322 240 476 98 150 -138
251 -387 404 -988 134 -530 187 -682 261 -745 28 -23 39 -26 72 -21 137 22
253 223 342 591 54 222 60 295 60 750 -1 400 -11 627 -40 830 l-13 90 68 140
c277 568 496 1582 452 2093 -24 284 -92 438 -227 517 -22 13 -83 38 -135 56
-77 25 -116 33 -205 36 -148 7 -241 -14 -526 -115 -342 -122 -482 -152 -709
-152 -227 0 -367 30 -709 152 -124 44 -266 89 -316 99 -104 22 -242 24 -330 4z"/>
</g>
</svg>
