<svg xmlns="http://www.w3.org/2000/svg" width="458" height="560.8" viewBox="0 0 458 560.8"><defs><style>.a{fill-rule:evenodd;}</style></defs><path class="a" d="M288.8,515.1c5.6-37.1,11.9-79.4,41-98.8,16.3-11,23.8-10.8,40.1.5,28.4,19.7,34.7,61.6,40.2,98.3,2.3,15.5,16.6,77,35,70.4,31-11.3,63.1-104.1,79.9-205.5s16.8-212-17.7-252.8c-15.9-18.7-43.4-18.2-86.8,13.8-54,43.3-93.2,40.2-144.8-1.9-41.8-30.1-68.6-30.2-84-11.9-34.6,40.8-34.8,150-17.8,252.8s48.9,194.1,80,205.4c18.3,6.7,32.6-54.8,34.9-70.3ZM349.5,456c-10.2,12.5-14.4,40.5-18.1,65.3-7,46.8-33.2,126-92.2,104.5-46.1-16.7-88.7-124.1-107.7-238.9-18.8-113.2-16.1-236.2,27.3-287.5,33.5-39.6,83.1-48.1,158.6,17.6,16.1,13.4,44.9,15.5,64.1,0,73.8-60.3,125.1-57.2,158.6-17.6,43.4,51.3,46.1,174.3,27.3,287.5-19,114.8-61.6,222.2-107.7,238.9-59,21.5-85.2-57.7-92.2-104.5-3.7-24.8-7.9-52.8-18.1-65.3Z" transform="translate(-120.5 -68.6)"/></svg>